# xmcd
#
# Track frame offsets: 
#        150
#        12806
#        18991
#        31081
#        42251
#        49764
#        70128
#        93541
#        104742
#        109139
#        134304
#        148645
#        160730
#        168843
#        175551
#        180007
#        197077
#        223870
#        226987
#
# Disc length: 3430 seconds
#
# Revision: 2
# Processed by: cddbd v1.5.2PL0 Copyright (c) Steve Scherf et al.
# Submitted via: ExactAudioCopy v0.95b3
#
DISCID=f50d6413
DTITLE=Schlippenbach, Dörner, Mahall, Roder, Jennessen - Monk's Casino
DTITLE=Vol. 3
DYEAR=2004
DGENRE=Jazz
TTITLE0=Bolivar Blues - Well You Needn't
TTITLE1=Brake's Sake
TTITLE2=Nutty
TTITLE3=Who Knows
TTITLE4=Blue Hawk - North Of The Sunset - Blue Sphere - Something in B
TTITLE4=lue
TTITLE5=Boo Boo's Birthday
TTITLE6=Ask Me Now
TTITLE7=Think Of One
TTITLE8=Raise Four
TTITLE9=Japanese Folk Song - Children's Song - Blue Monk
TTITLE10=Wee See
TTITLE11=Bright MIssissippi
TTITLE12=Reflrections
TTITLE13=Five Spot Blues
TTITLE14=Light Blue
TTITLE15=Teo
TTITLE16=Rhythm a ning
TTITLE17=A Merrier Christmas
TTITLE18=Straight No Chaser - Epistrophy
EXTD=YEAR: 2004
EXTT0=
EXTT1=
EXTT2=
EXTT3=
EXTT4=
EXTT5=
EXTT6=
EXTT7=
EXTT8=
EXTT9=
EXTT10=
EXTT11=
EXTT12=
EXTT13=
EXTT14=
EXTT15=
EXTT16=
EXTT17=
EXTT18=
PLAYORDER=
